<?xml version="1.0" standalone="no"?>
<!DOCTYPE svg PUBLIC "-//W3C//DTD SVG 20010904//EN"
 "http://www.w3.org/TR/2001/REC-SVG-20010904/DTD/svg10.dtd">
<svg version="1.0" xmlns="http://www.w3.org/2000/svg"
 width="971.000000pt" height="971.000000pt" viewBox="0 0 971.000000 971.000000"
 preserveAspectRatio="xMidYMid meet">
<metadata>
Created by potrace 1.14, written by Peter Selinger 2001-2017
</metadata>
<g transform="translate(0.000000,971.000000) scale(0.100000,-0.100000)"
fill="#000000" stroke="none">
<path d="M777 9704 c-1 -1 -27 -4 -57 -7 -338 -34 -626 -302 -696 -647 -16
-80 -17 -336 -17 -4175 0 -2250 3 -4120 6 -4156 8 -77 45 -195 86 -277 114
-227 368 -400 626 -427 115 -12 8226 -8 8296 5 254 44 450 179 579 399 40 68
88 211 97 288 9 78 8 8256 -1 8311 -43 257 -208 483 -434 597 -43 22 -197 79
-197 74 0 -1 -25 2 -55 6 -42 6 -8226 15 -8233 9z"/>
</g>
</svg>
